<svg xmlns="http://www.w3.org/2000/svg" viewBox="0 0 69.031 73.962"><defs><style>.a{fill:#009a93;}</style></defs><path class="a" d="M68.43,32.22a1.226,1.226,0,0,0-1.217-.015l-3.39,1.88L62.868,1.2A1.24,1.24,0,0,0,61.635,0H53.006a1.23,1.23,0,0,0-1.233,1.2L50.618,41.419l-3.775,2.1V33.283A1.236,1.236,0,0,0,45.61,32.05a1.165,1.165,0,0,0-.6.154L24.654,43.514V33.283a1.236,1.236,0,0,0-1.233-1.233,1.165,1.165,0,0,0-.6.154L.632,44.531A1.244,1.244,0,0,0,0,45.61V72.729a1.236,1.236,0,0,0,1.233,1.233H67.8a1.236,1.236,0,0,0,1.233-1.233V33.283A1.242,1.242,0,0,0,68.43,32.22ZM54.069,7.4h6.518l.8,28.044-8.244,4.576Zm6.364-4.931.077,2.465H54.131l.077-2.465ZM25.887,71.5V65.333h7.4V71.5Zm9.862,0V65.333h7.4V71.5Zm30.817,0H45.61V64.1a1.236,1.236,0,0,0-1.233-1.233H24.654A1.236,1.236,0,0,0,23.421,64.1v7.4H2.465V46.334L22.189,35.379V45.61a1.236,1.236,0,0,0,1.233,1.233,1.165,1.165,0,0,0,.6-.154l20.355-11.31V45.61a1.236,1.236,0,0,0,1.233,1.233,1.165,1.165,0,0,0,.6-.154l11.618-6.456,5.408-3h0l3.328-1.849Z" transform="translate(0)"/><path class="a" d="M51.094,320H41.233A1.236,1.236,0,0,0,40,321.233v4.931a1.236,1.236,0,0,0,1.233,1.233h9.862a1.236,1.236,0,0,0,1.233-1.233v-4.931A1.236,1.236,0,0,0,51.094,320Zm-1.233,4.931h-7.4v-2.465h7.4Z" transform="translate(-33.837 -270.692)"/><path class="a" d="M195.094,320h-9.862A1.236,1.236,0,0,0,184,321.233v4.931a1.236,1.236,0,0,0,1.233,1.233h9.862a1.236,1.236,0,0,0,1.233-1.233v-4.931A1.236,1.236,0,0,0,195.094,320Zm-1.233,4.931h-7.4v-2.465h7.4Z" transform="translate(-155.648 -270.692)"/><path class="a" d="M339.094,320h-9.862A1.236,1.236,0,0,0,328,321.233v4.931a1.236,1.236,0,0,0,1.233,1.233h9.862a1.236,1.236,0,0,0,1.233-1.233v-4.931A1.236,1.236,0,0,0,339.094,320Zm-1.233,4.931h-7.4v-2.465h7.4Z" transform="translate(-277.459 -270.692)"/></svg>