<svg xmlns="http://www.w3.org/2000/svg" xmlns:xlink="http://www.w3.org/1999/xlink" viewBox="0 0 22.251 22.251">
  <defs>
    <style>
      .cls-1 {
        fill: #fff;
      }

      .cls-2 {
        clip-path: url(#clip-path);
      }
    </style>
    <clipPath id="clip-path">
      <path id="Path_14" data-name="Path 14" class="cls-1" d="M0-22.251H22.251V0H0Z"/>
    </clipPath>
  </defs>
  <g id="Group_14" data-name="Group 14" class="cls-2" transform="translate(0 22.251)">
    <g id="Group_13" data-name="Group 13" transform="translate(8.544 -5.474)">
      <path id="Path_13" data-name="Path 13" class="cls-1" d="M0,0A8.063,8.063,0,0,0,8.116-8.116c0-.123,0-.245-.005-.367a5.827,5.827,0,0,0,1.424-1.48,5.77,5.77,0,0,1-1.641.45,2.866,2.866,0,0,0,1.257-1.58,5.657,5.657,0,0,1-1.813.691,2.851,2.851,0,0,0-2.08-.9A2.857,2.857,0,0,0,2.4-8.45a3.122,3.122,0,0,0,.073.651A8.1,8.1,0,0,1-3.4-10.781a2.853,2.853,0,0,0-.384,1.435A2.861,2.861,0,0,0-2.52-6.97a2.886,2.886,0,0,1-1.291-.357v.039a2.859,2.859,0,0,0,2.287,2.8,2.776,2.776,0,0,1-.75.1,2.85,2.85,0,0,1-.536-.049A2.855,2.855,0,0,0-.145-2.459,5.718,5.718,0,0,1-3.688-1.235a5.454,5.454,0,0,1-.679-.039A8.119,8.119,0,0,0,0,0M10.926,5.474H-5.763A2.782,2.782,0,0,1-8.544,2.692V-14a2.781,2.781,0,0,1,2.781-2.781H10.926A2.782,2.782,0,0,1,13.707-14V2.692a2.782,2.782,0,0,1-2.781,2.782"/>
    </g>
  </g>
</svg>
