<svg xmlns="http://www.w3.org/2000/svg" xmlns:xlink="http://www.w3.org/1999/xlink" viewBox="0 0 22.562 22.562">
  <defs>
    <style>
      .cls-1 {
        fill: #fff;
      }

      .cls-2 {
        clip-path: url(#clip-path);
      }
    </style>
    <clipPath id="clip-path">
      <path id="Path_9" data-name="Path 9" class="cls-1" d="M0-22.562H22.562V0H0Z"/>
    </clipPath>
  </defs>
  <g id="Group_9" data-name="Group 9" class="cls-2" transform="translate(0 22.562)">
    <g id="Group_8" data-name="Group 8" transform="translate(19.227 -3.337)">
      <path id="Path_8" data-name="Path 8" class="cls-1" d="M0,0H-3.346V-5.237c0-1.248-.021-2.854-1.739-2.854-1.74,0-2.007,1.361-2.007,2.765V0h-3.343V-10.767h3.208V-9.3h.045a3.519,3.519,0,0,1,3.167-1.739C-.625-11.034,0-8.805,0-5.905ZM-14.207-12.238a1.94,1.94,0,0,1-1.942-1.941,1.941,1.941,0,0,1,1.942-1.941,1.941,1.941,0,0,1,1.939,1.941,1.941,1.941,0,0,1-1.939,1.941M-12.533,0h-3.351V-10.767h3.351Zm14.2-19.226H-17.562A1.647,1.647,0,0,0-19.227-17.6V1.709a1.649,1.649,0,0,0,1.665,1.628H1.666A1.649,1.649,0,0,0,3.334,1.709V-17.6a1.648,1.648,0,0,0-1.668-1.627"/>
    </g>
  </g>
</svg>
