<svg xmlns="http://www.w3.org/2000/svg" xmlns:xlink="http://www.w3.org/1999/xlink" viewBox="0 0 22.562 22.56">
  <defs>
    <style>
      .cls-1 {
        fill: #fff;
      }

      .cls-2 {
        clip-path: url(#clip-path);
      }
    </style>
    <clipPath id="clip-path">
      <path id="Path_5" data-name="Path 5" class="cls-1" d="M0-22.56H22.562V0H0Z"/>
    </clipPath>
  </defs>
  <g id="Group_5" data-name="Group 5" class="cls-2" transform="translate(0 22.56)">
    <g id="Group_4" data-name="Group 4" transform="translate(21.315 -22.56)">
      <path id="Path_4" data-name="Path 4" class="cls-1" d="M0,0H-20.065a1.246,1.246,0,0,0-1.249,1.246V21.314a1.246,1.246,0,0,0,1.249,1.246h10.8V13.854H-12.21V10.421h2.933v-2.5c0-2.916,1.778-4.5,4.378-4.5a24.882,24.882,0,0,1,2.644.15V6.606h-1.8c-1.412,0-1.684.669-1.684,1.653v2.179h3.384l-.44,3.416H-5.738V22.56H0a1.246,1.246,0,0,0,1.247-1.246V1.246A1.246,1.246,0,0,0,0,0"/>
    </g>
  </g>
</svg>
