<?xml version="1.0" encoding="utf-8"?>
<!-- Generator: Adobe Illustrator 21.1.0, SVG Export Plug-In . SVG Version: 6.00 Build 0)  -->
<svg version="1.1" id="Layer_1" xmlns="http://www.w3.org/2000/svg" xmlns:xlink="http://www.w3.org/1999/xlink" x="0px" y="0px"
	 viewBox="0 0 20 27.2" style="enable-background:new 0 0 20 27.2;" xml:space="preserve">
<style type="text/css">
	.st0{fill:#FFFFFF;stroke:#009A93;stroke-width:0.5;stroke-miterlimit:10;}
</style>
<g id="Group_291" transform="translate(0.276 0.25)">
	<g id="Group_237" transform="translate(0 0)">
		<g id="Group_223" transform="translate(2.755 3.517)">
			<path id="Path_131" class="st0" d="M11.3,18.7H3.3c-0.1,0-0.2-0.1-0.2-0.2v-5.3c-3.3-2.4-4-6.9-1.7-10.2s6.9-4,10.2-1.7
				s4,6.9,1.7,10.2c-0.5,0.6-1,1.2-1.7,1.7v5.3C11.6,18.6,11.5,18.7,11.3,18.7z M3.5,18.3h7.6v-5.2c0-0.1,0-0.1,0.1-0.2
				c3.1-2.2,3.9-6.4,1.7-9.5S6.5-0.5,3.4,1.7s-3.9,6.4-1.7,9.5c0.5,0.7,1.1,1.3,1.7,1.7c0.1,0,0.1,0.1,0.1,0.2L3.5,18.3z"/>
		</g>
		<g id="Group_224" transform="translate(9.408)">
			<path id="Path_132" class="st0" d="M0.2,2.8C0.1,2.8,0,2.7,0,2.6V0.2C0,0.1,0.1,0,0.2,0c0.1,0,0.2,0.1,0.2,0.2c0,0,0,0,0,0v2.4
				C0.4,2.7,0.3,2.8,0.2,2.8z"/>
		</g>
		<g id="Group_225" transform="translate(12.27 0.376)">
			<path id="Path_133" class="st0" d="M0.2,2.7L0.2,2.7C0,2.7,0,2.6,0,2.5l0.6-2.3C0.7,0,0.8,0,0.9,0C1,0,1.1,0.2,1.1,0.3L0.4,2.6
				C0.4,2.7,0.3,2.7,0.2,2.7z"/>
		</g>
		<g id="Group_226" transform="translate(14.963 1.614)">
			<path id="Path_134" class="st0" d="M0.2,2.5c0,0-0.1,0-0.1,0C0,2.4,0,2.3,0,2.2l1.2-2.1C1.3,0,1.4,0,1.5,0
				c0.1,0.1,0.1,0.2,0.1,0.3L0.4,2.4C0.4,2.5,0.3,2.5,0.2,2.5z"/>
		</g>
		<g id="Group_227" transform="translate(17.315 3.629)">
			<path id="Path_135" class="st0" d="M0.2,2.1c-0.1,0-0.1,0-0.2-0.1C0,2,0,1.9,0.1,1.8c0,0,0,0,0,0l1.7-1.7C1.9,0,2,0,2.1,0.1
				s0.1,0.2,0,0.3L0.4,2.1C0.3,2.1,0.3,2.2,0.2,2.1z"/>
		</g>
		<g id="Group_228" transform="translate(0 4.189)">
			<path id="Path_136" class="st0" d="M1.9,2.1c-0.1,0-0.1,0-0.2-0.1L0.1,0.4C0,0.3,0,0.2,0.1,0.1s0.2-0.1,0.3,0l0,0l1.7,1.7
				c0.1,0.1,0.1,0.2,0,0.3c0,0,0,0,0,0C2,2.1,2,2.2,1.9,2.1z"/>
		</g>
		<g id="Group_229" transform="translate(2.746 1.984)">
			<path id="Path_137" class="st0" d="M1.4,2.5c-0.1,0-0.1,0-0.2-0.1L0,0.3C0,0.2,0,0.1,0.1,0s0.2,0,0.3,0.1l1.2,2.1
				c0.1,0.1,0,0.2-0.1,0.3c0,0,0,0,0,0C1.5,2.5,1.5,2.5,1.4,2.5z"/>
		</g>
		<g id="Group_230" transform="translate(5.954 0.556)">
			<path id="Path_138" class="st0" d="M0.8,2.8c-0.1,0-0.2-0.1-0.2-0.2L0,0.3C0,0.2,0,0,0.2,0c0.1,0,0.2,0,0.3,0.2l0.6,2.3
				C1.1,2.6,1,2.7,0.8,2.8C0.9,2.8,0.9,2.8,0.8,2.8z"/>
		</g>
		<g id="Group_231" transform="translate(4.278 5.353)">
			<path id="Path_139" class="st0" d="M1.2,9.1C1.1,9.1,1,9.1,1,9L0.6,8.3c0-0.1,0-0.2,0-0.3l1.1-0.9C1.7,7,1.6,6.8,1.6,6.6L0.2,6.4
				C0.1,6.4,0,6.3,0,6.2V5.4c0-0.1,0.1-0.2,0.2-0.2L1.6,5c0-0.2,0.1-0.4,0.2-0.6L0.6,3.5c-0.1-0.1-0.1-0.2,0-0.3L1,2.6
				C1,2.5,1.1,2.4,1.2,2.5L2.5,3C2.7,2.8,2.8,2.7,3,2.6L2.5,1.3c0-0.1,0-0.2,0.1-0.3l0.7-0.4c0.1,0,0.2,0,0.3,0l0.9,1.1
				C4.6,1.7,4.8,1.6,5,1.6l0.2-1.4C5.2,0.1,5.3,0,5.4,0h0.8c0.1,0,0.2,0.1,0.2,0.2l0.2,1.4c0.2,0,0.4,0.1,0.6,0.2l0.9-1.1
				c0.1-0.1,0.2-0.1,0.3,0L9,1C9.1,1,9.2,1.1,9.1,1.2L8.6,2.5C8.8,2.7,8.9,2.8,9,3l1.3-0.5c0.1,0,0.2,0,0.3,0.1L11,3.2
				c0,0.1,0,0.2,0,0.3L9.9,4.4C9.9,4.6,10,4.8,10,5l1.4,0.2c0.1,0,0.2,0.1,0.2,0.2v0.8c0,0.1-0.1,0.2-0.2,0.2L10,6.6
				C10,6.8,9.9,7,9.9,7.2L11,8.1c0.1,0.1,0.1,0.2,0,0.3L10.6,9c-0.1,0.1-0.2,0.1-0.3,0.1L8.9,8.6c-0.1,0-0.2-0.2-0.1-0.3
				c0-0.1,0.2-0.2,0.3-0.1l1.3,0.5l0.2-0.4L9.4,7.4C9.4,7.4,9.3,7.3,9.4,7.2c0.1-0.2,0.2-0.5,0.2-0.8c0-0.1,0.1-0.2,0.2-0.2L11.1,6
				V5.6L9.8,5.4c-0.1,0-0.2-0.1-0.2-0.2c0-0.3-0.1-0.5-0.2-0.8c0-0.1,0-0.2,0.1-0.2l1.1-0.9l-0.2-0.4L9,3.4c-0.1,0-0.2,0-0.2-0.1
				C8.6,3.2,8.4,3,8.2,2.8C8.1,2.7,8.1,2.6,8.1,2.5l0.5-1.3L8.3,1.1L7.4,2.1C7.4,2.2,7.3,2.2,7.2,2.2C6.9,2.1,6.6,2,6.4,2
				C6.3,2,6.2,1.9,6.2,1.8L6,0.5H5.6L5.4,1.8C5.4,1.9,5.3,2,5.2,2C4.9,2,4.7,2.1,4.4,2.2c-0.1,0-0.2,0-0.2-0.1L3.3,1.1L3,1.3
				l0.5,1.3c0,0.1,0,0.2-0.1,0.2C3.2,2.9,3,3.1,2.8,3.4C2.7,3.4,2.6,3.5,2.6,3.4L1.3,2.9L1.1,3.3l1.1,0.9c0.1,0.1,0.1,0.2,0.1,0.2
				C2.1,4.6,2,4.9,2,5.2c0,0.1-0.1,0.2-0.2,0.2L0.5,5.5V6l1.3,0.2C1.9,6.2,2,6.3,2,6.4c0,0.3,0.1,0.5,0.2,0.8c0,0.1,0,0.2-0.1,0.2
				L1.1,8.2l0.2,0.4l1.3-0.5c0.1,0,0.2,0,0.3,0.1c0,0.1,0,0.2-0.1,0.3l0,0L1.2,9.1C1.2,9.1,1.2,9.1,1.2,9.1z"/>
		</g>
		<g id="Group_232" transform="translate(4.771 17.695)">
			<path id="Path_140" class="st0" d="M10.3,0.4H0.2C0.1,0.4,0,0.3,0,0.2C0,0.1,0.1,0,0.2,0c0,0,0,0,0,0h10.1c0.1,0,0.2,0.1,0.2,0.2
				C10.6,0.3,10.5,0.4,10.3,0.4z"/>
		</g>
		<g id="Group_233" transform="translate(4.771 19.174)">
			<path id="Path_141" class="st0" d="M10.3,0.4H0.2C0.1,0.4,0,0.3,0,0.2S0.1,0,0.2,0c0,0,0,0,0,0h10.1c0.1,0,0.2,0.1,0.2,0.2
				C10.6,0.3,10.5,0.4,10.3,0.4z"/>
		</g>
		<g id="Group_234" transform="translate(4.771 20.518)">
			<path id="Path_142" class="st0" d="M10.3,0.4H0.2C0.1,0.4,0,0.3,0,0.2S0.1,0,0.2,0c0,0,0,0,0,0h10.1c0.1,0,0.2,0.1,0.2,0.2
				S10.5,0.4,10.3,0.4C10.3,0.4,10.3,0.4,10.3,0.4z"/>
		</g>
		<g id="Group_235" transform="translate(7.213 21.839)">
			<path id="Path_143" class="st0" d="M5.5,2.8H0.2C0.1,2.8,0,2.7,0,2.6V0.2C0,0.1,0.1,0,0.2,0h5.2c0.1,0,0.2,0.1,0.2,0.2v2.4
				C5.7,2.7,5.6,2.8,5.5,2.8z M0.4,2.4h4.8V0.4H0.4L0.4,2.4z"/>
		</g>
		<g id="Group_236" transform="translate(8.982 24.191)">
			<path id="Path_144" class="st0" d="M1.9,2.5H0.2C0.1,2.5,0,2.4,0,2.3V0.2C0,0.1,0.1,0,0.2,0h1.7C2,0,2.1,0.1,2.1,0.2v2.1
				C2.1,2.4,2,2.5,1.9,2.5C1.9,2.5,1.9,2.5,1.9,2.5z M0.4,2.1h1.3V0.5H0.4L0.4,2.1z"/>
		</g>
	</g>
</g>
</svg>
