<svg id="Group_352" data-name="Group 352" xmlns="http://www.w3.org/2000/svg" xmlns:xlink="http://www.w3.org/1999/xlink" width="21.438" height="28.169" viewBox="0 0 21.438 28.169">
  <defs>
    <clipPath id="clip-path">
      <rect id="Rectangle_252" data-name="Rectangle 252" width="21.428" height="28.169" fill="#fff"/>
    </clipPath>
  </defs>
  <g id="Group_351" data-name="Group 351" transform="translate(0.01)">
    <g id="Group_349" data-name="Group 349" clip-path="url(#clip-path)">
      <path id="Path_226" data-name="Path 226" d="M55.774,13.683c3.129,0,5.674-3.089,5.674-6.891S60.613-.1,55.774-.1,50.1,3,50.1,6.8s2.545,6.881,5.674,6.881Zm0,0" transform="translate(-45.06 0.09)" fill="#fff"/>
    </g>
    <g id="Group_350" data-name="Group 350" clip-path="url(#clip-path)">
      <path id="Path_227" data-name="Path 227" d="M0,240.424Zm0,0" transform="translate(0 -216.128)" fill="#fff"/>
    </g>
  </g>
  <path id="Path_228" data-name="Path 228" d="M21.318,151.908c-.1-6.63-.966-8.511-7.6-9.708a3.983,3.983,0,0,1-3.109,1.187A3.983,3.983,0,0,1,7.506,142.2C.956,143.387.041,145.238-.08,151.7c-.01.523-.01.553-.02.493v.694s1.579,3.179,10.714,3.179,10.714-3.179,10.714-3.179v-.513c0,.04,0-.04-.01-.463Zm0,0" transform="translate(0.1 -127.894)" fill="#fff"/>
</svg>
