<?xml version="1.0" encoding="utf-8"?>
<!-- Generator: Adobe Illustrator 21.1.0, SVG Export Plug-In . SVG Version: 6.00 Build 0)  -->
<svg version="1.1" id="Layer_1" xmlns="http://www.w3.org/2000/svg" xmlns:xlink="http://www.w3.org/1999/xlink" x="0px" y="0px"
	 viewBox="0 0 22.3 27.6" style="enable-background:new 0 0 22.3 27.6;" xml:space="preserve">
<style type="text/css">
	.st0{fill:#009A93;}
</style>
<path id="Path_182" class="st0" d="M20.6,0h-19C0.7,0,0,0.7,0,1.6c0,0,0,0,0,0v2c0,0.9,0.7,1.6,1.6,1.6h7.1c0,0.3,0.1,0.6,0.2,0.9
	h-7c-0.4,0-0.7,0.3-0.7,0.7c0,0.4,0.3,0.7,0.7,0.7h7.2v1.1H2.6c-0.4,0-0.7,0.3-0.7,0.7c0,0.4,0.3,0.7,0.7,0.7h6.5v1H3.2
	c-0.4,0-0.7,0.3-0.7,0.7c0,0.4,0.3,0.7,0.7,0.7h5.9v0.9H3.7c-0.4,0-0.7,0.3-0.7,0.7C3,14.7,3.3,15,3.7,15h5.4v0.7
	c-0.2,0.1-0.4,0.1-0.6,0.2H4.2c-0.4,0-0.7,0.3-0.7,0.7c0,0.4,0.3,0.7,0.7,0.7c0,0,0,0,0,0h2.4C4.3,19.9,4.5,23.8,7,26
	s6.4,2.1,8.6-0.4c2.1-2.3,2.1-5.9,0-8.2H18c0.4,0,0.7-0.3,0.7-0.7c0-0.4-0.3-0.7-0.7-0.7c0,0,0,0,0,0h-4.3c-0.2-0.1-0.4-0.2-0.6-0.2
	V15h5.4c0.4,0,0.7-0.3,0.7-0.7c0-0.4-0.3-0.7-0.7-0.7h-5.4v-0.9h5.9c0.4,0,0.7-0.3,0.7-0.7s-0.3-0.7-0.7-0.7c0,0,0,0,0,0h-5.9v-1
	h6.5c0.4,0,0.7-0.3,0.7-0.7s-0.3-0.7-0.7-0.7c0,0,0,0,0,0h-6.5V7.6h7.2c0.4,0,0.7-0.3,0.7-0.7s-0.3-0.7-0.7-0.7c0,0,0,0,0,0h-7
	c0.1-0.3,0.2-0.6,0.2-0.9h7.1c0.9,0,1.6-0.7,1.6-1.6v-2C22.3,0.7,21.6,0,20.6,0z M11.1,24c-1.4,0-2.6-1.2-2.6-2.6
	c0-1.4,1.2-2.6,2.6-2.6s2.6,1.2,2.6,2.6C13.7,22.8,12.6,24,11.1,24C11.1,24,11.1,24,11.1,24L11.1,24z"/>
</svg>
