<svg xmlns="http://www.w3.org/2000/svg" width="34.064" height="34.061" viewBox="0 0 34.064 34.061">
  <path id="Path_231" data-name="Path 231" d="M24.146,19.051a1.163,1.163,0,0,1-.36,1.024l-3.4,3.374a1.892,1.892,0,0,1-.6.433,2.369,2.369,0,0,1-.731.23c-.016,0-.068.005-.151.01a3.048,3.048,0,0,1-.334.01A12.054,12.054,0,0,1,17,23.965a11.681,11.681,0,0,1-2.658-.82,22.071,22.071,0,0,1-3.567-1.958,26.441,26.441,0,0,1-4.246-3.577A28.338,28.338,0,0,1,3.56,14.236a24.238,24.238,0,0,1-1.89-2.977A16.521,16.521,0,0,1,.594,8.778,14.064,14.064,0,0,1,.108,6.867,6.617,6.617,0,0,1,0,5.6C.019,5.3.03,5.128.03,5.092a2.568,2.568,0,0,1,.23-.731,1.976,1.976,0,0,1,.433-.6L4.1.36A1.127,1.127,0,0,1,4.918,0a.953.953,0,0,1,.59.193,1.721,1.721,0,0,1,.433.475L8.678,5.859a1.223,1.223,0,0,1,.125.893,1.624,1.624,0,0,1-.433.82L7.116,8.825a.413.413,0,0,0-.089.167.615.615,0,0,0-.037.193,4.511,4.511,0,0,0,.46,1.227A11.391,11.391,0,0,0,8.4,11.907a16.347,16.347,0,0,0,1.817,2.031,16.639,16.639,0,0,0,2.047,1.828,12.727,12.727,0,0,0,1.494.961,3.989,3.989,0,0,0,.919.371l.319.063a.567.567,0,0,0,.167-.037.488.488,0,0,0,.167-.089l1.457-1.483a1.571,1.571,0,0,1,1.076-.407,1.349,1.349,0,0,1,.689.151h.026l4.935,2.914a1.26,1.26,0,0,1,.637.841Z" transform="translate(15.832 0) rotate(41)" fill="#fff"/>
</svg>
