<svg xmlns="http://www.w3.org/2000/svg" width="19.991" height="27.2" viewBox="0 0 19.991 27.2">
  <g id="Group_291" data-name="Group 291" transform="translate(0.276 0.25)">
    <g id="Group_237" data-name="Group 237" transform="translate(0 0)">
      <g id="Group_223" data-name="Group 223" transform="translate(2.755 3.517)">
        <path id="Path_131" data-name="Path 131" d="M24.534,35.448H16.47a.224.224,0,0,1-.224-.224V29.938a7.3,7.3,0,1,1,8.512,0v5.286A.24.24,0,0,1,24.534,35.448Zm-7.84-.426H24.31v-5.2a.277.277,0,0,1,.09-.179,6.854,6.854,0,1,0-7.795,0,.2.2,0,0,1,.09.179Z" transform="translate(-13.2 -16.7)" fill="#fff" stroke="#fff" stroke-miterlimit="10" stroke-width="0.5"/>
      </g>
      <g id="Group_224" data-name="Group 224" transform="translate(9.408)">
        <path id="Path_132" data-name="Path 132" d="M43.124,3.845a.224.224,0,0,1-.224-.224v-2.4A.224.224,0,0,1,43.124,1a.212.212,0,0,1,.224.224v2.4A.241.241,0,0,1,43.124,3.845Z" transform="translate(-42.9 -1)" fill="#fff" stroke="#fff" stroke-miterlimit="10" stroke-width="0.5"/>
      </g>
      <g id="Group_225" data-name="Group 225" transform="translate(12.27 0.376)">
        <path id="Path_133" data-name="Path 133" d="M55.909,5.418h-.067a.23.23,0,0,1-.157-.269l.627-2.307a.22.22,0,1,1,.426.112l-.627,2.307A.215.215,0,0,1,55.909,5.418Z" transform="translate(-55.681 -2.681)" fill="#fff" stroke="#fff" stroke-miterlimit="10" stroke-width="0.5"/>
      </g>
      <g id="Group_226" data-name="Group 226" transform="translate(14.963 1.614)">
        <path id="Path_134" data-name="Path 134" d="M67.927,10.711a.2.2,0,0,1-.112-.022.227.227,0,0,1-.09-.291l1.187-2.083a.215.215,0,0,1,.381.2L68.106,10.6A.177.177,0,0,1,67.927,10.711Z" transform="translate(-67.703 -8.203)" fill="#fff" stroke="#fff" stroke-miterlimit="10" stroke-width="0.5"/>
      </g>
      <g id="Group_227" data-name="Group 227" transform="translate(17.315 3.629)">
        <path id="Path_135" data-name="Path 135" d="M78.424,19.35a.2.2,0,0,1-.157-.067.217.217,0,0,1,0-.314l1.7-1.7a.222.222,0,0,1,.314.314l-1.7,1.7A.2.2,0,0,1,78.424,19.35Z" transform="translate(-78.2 -17.2)" fill="#fff" stroke="#fff" stroke-miterlimit="10" stroke-width="0.5"/>
      </g>
      <g id="Group_228" data-name="Group 228" transform="translate(0 4.189)">
        <path id="Path_136" data-name="Path 136" d="M2.826,21.85a.2.2,0,0,1-.157-.067l-1.7-1.7a.222.222,0,1,1,.314-.314l1.7,1.7a.217.217,0,0,1,0,.314A.2.2,0,0,1,2.826,21.85Z" transform="translate(-0.9 -19.7)" fill="#fff" stroke="#fff" stroke-miterlimit="10" stroke-width="0.5"/>
      </g>
      <g id="Group_229" data-name="Group 229" transform="translate(2.746 1.984)">
        <path id="Path_137" data-name="Path 137" d="M14.579,12.377a.2.2,0,0,1-.179-.112l-1.21-2.083a.215.215,0,1,1,.381-.2l1.21,2.083a.2.2,0,0,1-.09.291A.244.244,0,0,1,14.579,12.377Z" transform="translate(-13.159 -9.859)" fill="#fff" stroke="#fff" stroke-miterlimit="10" stroke-width="0.5"/>
      </g>
      <g id="Group_230" data-name="Group 230" transform="translate(5.954 0.556)">
        <path id="Path_138" data-name="Path 138" d="M28.314,6.24a.215.215,0,0,1-.2-.157l-.627-2.33a.22.22,0,1,1,.426-.112l.627,2.307a.23.23,0,0,1-.157.269A.082.082,0,0,1,28.314,6.24Z" transform="translate(-27.481 -3.481)" fill="#fff" stroke="#fff" stroke-miterlimit="10" stroke-width="0.5"/>
      </g>
      <g id="Group_231" data-name="Group 231" transform="translate(4.278 5.353)">
        <path id="Path_139" data-name="Path 139" d="M21.165,34.039a.2.2,0,0,1-.179-.112l-.4-.694a.275.275,0,0,1,.045-.291l1.1-.874a5.23,5.23,0,0,1-.157-.56l-1.389-.2A.218.218,0,0,1,20,31.082V30.3a.241.241,0,0,1,.179-.224l1.389-.2a4.087,4.087,0,0,1,.157-.56l-1.1-.874a.209.209,0,0,1-.045-.291l.4-.694a.215.215,0,0,1,.269-.09l1.3.515c.134-.134.269-.291.426-.426l-.515-1.3a.207.207,0,0,1,.09-.269l.694-.4a.275.275,0,0,1,.291.045l.874,1.1a5.229,5.229,0,0,1,.56-.157l.2-1.389A.218.218,0,0,1,25.4,24.9H26.2a.241.241,0,0,1,.224.179l.2,1.389a4.085,4.085,0,0,1,.56.157l.874-1.1a.209.209,0,0,1,.291-.045l.694.4a.215.215,0,0,1,.09.269l-.515,1.3a3.818,3.818,0,0,1,.426.426l1.3-.515a.207.207,0,0,1,.269.09l.4.694a.275.275,0,0,1-.045.291l-1.1.874a5.231,5.231,0,0,1,.157.56l1.389.2a.218.218,0,0,1,.179.224V31.1a.241.241,0,0,1-.179.224l-1.389.2a5.232,5.232,0,0,1-.157.56l1.1.874a.209.209,0,0,1,.045.291l-.4.694a.215.215,0,0,1-.269.09l-1.456-.56a.227.227,0,1,1,.157-.426l1.277.493.2-.358-1.075-.851a.212.212,0,0,1-.067-.246,2.7,2.7,0,0,0,.2-.784c.022-.09.09-.179.179-.179l1.344-.2V30.5l-1.344-.2c-.09-.022-.179-.09-.179-.179a4.469,4.469,0,0,0-.2-.784.2.2,0,0,1,.067-.246l1.075-.851-.224-.4-1.277.493a.2.2,0,0,1-.246-.067,3.578,3.578,0,0,0-.582-.582.212.212,0,0,1-.067-.246l.493-1.277-.358-.2-.851,1.075a.212.212,0,0,1-.246.067,3.1,3.1,0,0,0-.784-.2c-.09-.022-.179-.09-.179-.179L26,25.37h-.426l-.2,1.344c-.022.09-.09.179-.179.179a4.011,4.011,0,0,0-.784.2.2.2,0,0,1-.246-.067l-.851-1.075-.358.2.493,1.277a.2.2,0,0,1-.067.246,3.579,3.579,0,0,0-.582.582.212.212,0,0,1-.246.067l-1.3-.493-.2.358,1.075.851a.212.212,0,0,1,.067.246,4.47,4.47,0,0,0-.2.784c-.022.09-.09.179-.179.179l-1.344.2v.426l1.344.2c.09.022.179.09.179.179a4.47,4.47,0,0,0,.2.784.2.2,0,0,1-.067.246l-1.075.851.2.358,1.277-.493a.227.227,0,1,1,.157.426l-1.456.56C21.21,34.039,21.187,34.039,21.165,34.039Z" transform="translate(-20 -24.9)" fill="#fff" stroke="#fff" stroke-miterlimit="10" stroke-width="0.5"/>
      </g>
      <g id="Group_232" data-name="Group 232" transform="translate(4.771 17.695)">
        <path id="Path_140" data-name="Path 140" d="M32.548,80.448H22.424a.224.224,0,0,1-.224-.224A.212.212,0,0,1,22.424,80H32.548a.224.224,0,0,1,0,.448Z" transform="translate(-22.2 -80)" fill="#fff" stroke="#fff" stroke-miterlimit="10" stroke-width="0.5"/>
      </g>
      <g id="Group_233" data-name="Group 233" transform="translate(4.771 19.174)">
        <path id="Path_141" data-name="Path 141" d="M32.548,87.048H22.424a.224.224,0,1,1,0-.448H32.548a.224.224,0,0,1,0,.448Z" transform="translate(-22.2 -86.6)" fill="#fff" stroke="#fff" stroke-miterlimit="10" stroke-width="0.5"/>
      </g>
      <g id="Group_234" data-name="Group 234" transform="translate(4.771 20.518)">
        <path id="Path_142" data-name="Path 142" d="M32.548,93.048H22.424a.224.224,0,1,1,0-.448H32.548a.224.224,0,1,1,0,.448Z" transform="translate(-22.2 -92.6)" fill="#fff" stroke="#fff" stroke-miterlimit="10" stroke-width="0.5"/>
      </g>
      <g id="Group_235" data-name="Group 235" transform="translate(7.213 21.839)">
        <path id="Path_143" data-name="Path 143" d="M38.565,101.322H33.324a.224.224,0,0,1-.224-.224V98.724a.224.224,0,0,1,.224-.224h5.241a.224.224,0,0,1,.224.224V101.1A.241.241,0,0,1,38.565,101.322Zm-5.017-.448h4.816V98.926H33.548Z" transform="translate(-33.1 -98.5)" fill="#fff" stroke="#fff" stroke-miterlimit="10" stroke-width="0.5"/>
      </g>
      <g id="Group_236" data-name="Group 236" transform="translate(8.982 24.191)">
        <path id="Path_144" data-name="Path 144" d="M42.9,111.509h-1.68a.224.224,0,0,1-.224-.224v-2.061a.224.224,0,0,1,.224-.224H42.9a.224.224,0,0,1,.224.224v2.061A.212.212,0,0,1,42.9,111.509Zm-1.456-.426H42.7V109.47H41.448Z" transform="translate(-41 -109)" fill="#fff" stroke="#fff" stroke-miterlimit="10" stroke-width="0.5"/>
      </g>
    </g>
  </g>
</svg>
