<?xml version="1.0" encoding="utf-8"?>
<!-- Generator: Adobe Illustrator 21.1.0, SVG Export Plug-In . SVG Version: 6.00 Build 0)  -->
<svg version="1.1" id="Layer_1" xmlns="http://www.w3.org/2000/svg" xmlns:xlink="http://www.w3.org/1999/xlink" x="0px" y="0px"
	 viewBox="0 0 20.4 27.6" style="enable-background:new 0 0 20.4 27.6;" xml:space="preserve">
<style type="text/css">
	.st0{fill:#009A93;}
</style>
<g id="Group_357" transform="translate(0 0)">
	<g id="Group_355" transform="translate(0 2.347)">
		<g id="Group_353" transform="translate(0.878 0.61)">
			
				<rect id="Rectangle_254" x="0.5" y="0.4" transform="matrix(0.9243 -0.3818 0.3818 0.9243 -0.636 0.8666)" class="st0" width="2.7" height="3.3"/>
		</g>
		<g id="Group_354">
			<path id="Path_229" class="st0" d="M4.2,0.3C4.3,0.6,4.1,0.9,3.8,1c0,0,0,0,0,0L0.9,2.2C0.6,2.4,0.2,2.3,0,2l0,0
				c-0.1-0.3,0.1-0.7,0.4-0.7c0,0,0,0,0,0l2.9-1.2C3.6-0.1,4,0,4.2,0.3L4.2,0.3z"/>
		</g>
	</g>
	<g id="Group_356" transform="translate(0.371 0)">
		<path id="Path_230" class="st0" d="M20,2.3c0-0.6-0.3-1.2-0.8-1.6l-0.1-0.1C18.6,0.3,18,0,17.4,0H8.6C8,0,7.4,0.3,7,0.8L4.6,4.1
			c0,0.1-0.1,0.1-0.1,0.2L3.8,4.6C3.2,4.8,2.6,5.1,2,5.4L0.8,6.1C0.3,6.5,0,7,0,7.6v17.3c0,0.6,0.3,1.2,0.7,1.6l0.5,0.4
			c0.5,0.4,1.1,0.6,1.7,0.7h14.2c0.6,0,1.2-0.3,1.7-0.7l0.5-0.4c0.4-0.4,0.7-1,0.7-1.6L20,2.3L20,2.3z M7.6,2.6
			C8,2.1,8.5,1.8,9.1,1.8l5.1-0.3c0.5,0,0.8,0.3,0.5,0.8L14.4,3c-0.3,0.5-0.9,0.8-1.5,0.8L8,3.5C7.5,3.4,7.3,3,7.6,2.6z"/>
	</g>
</g>
</svg>
