<?xml version="1.0" encoding="utf-8"?>
<!-- Generator: Adobe Illustrator 21.1.0, SVG Export Plug-In . SVG Version: 6.00 Build 0)  -->
<svg version="1.1" id="Group_352" xmlns="http://www.w3.org/2000/svg" xmlns:xlink="http://www.w3.org/1999/xlink" x="0px" y="0px"
	 viewBox="0 0 21.4 28.2" style="enable-background:new 0 0 21.4 28.2;" xml:space="preserve">
<style type="text/css">
	.st0{clip-path:url(#SVGID_2_);}
	.st1{fill:#009A93;}
	.st2{clip-path:url(#SVGID_4_);}
	.st3{fill:#FFFFFF;}
</style>
<g id="Group_351" transform="translate(0.01)">
	<g>
		<defs>
			<rect id="SVGID_1_" x="0" width="21.4" height="28.2"/>
		</defs>
		<clipPath id="SVGID_2_">
			<use xlink:href="#SVGID_1_"  style="overflow:visible;"/>
		</clipPath>
		<g id="Group_349" class="st0">
			<path id="Path_226" class="st1" d="M10.7,13.8c3.1,0,5.7-3.1,5.7-6.9S15.6,0,10.7,0S5,3.1,5,6.9S7.6,13.8,10.7,13.8L10.7,13.8z"
				/>
		</g>
	</g>
	<g>
		<defs>
			<rect id="SVGID_3_" x="0" width="21.4" height="28.2"/>
		</defs>
		<clipPath id="SVGID_4_">
			<use xlink:href="#SVGID_3_"  style="overflow:visible;"/>
		</clipPath>
		<g id="Group_350" class="st2">
			<path id="Path_227" class="st3" d="M0,24.3"/>
		</g>
	</g>
</g>
<path id="Path_228" class="st1" d="M21.4,24c-0.1-6.6-1-8.5-7.6-9.7c-0.8,0.8-1.9,1.3-3.1,1.2c-1.2,0.1-2.3-0.4-3.1-1.2
	c-6.6,1.2-7.5,3-7.6,9.5c0,0.5,0,0.6,0,0.5V25c0,0,1.6,3.2,10.7,3.2S21.4,25,21.4,25v-0.5C21.4,24.5,21.4,24.4,21.4,24L21.4,24z"/>
</svg>
