<svg xmlns="http://www.w3.org/2000/svg" width="22.283" height="27.618" viewBox="0 0 22.283 27.618">
  <path id="Path_182" data-name="Path 182" d="M22.646,2H3.638A1.628,1.628,0,0,0,2,3.638V5.6A1.639,1.639,0,0,0,3.638,7.233h7.073a2.484,2.484,0,0,0,.186.945H3.908a.726.726,0,0,0,0,1.452H11.1v1.114H4.583a.726.726,0,0,0,0,1.452H11.1v.962H5.191a.726.726,0,0,0,0,1.452H11.1v.928H5.68a.726.726,0,0,0,0,1.452H11.1v.743c-.186.068-.371.135-.557.219h-4.3a.731.731,0,0,0-.726.726.721.721,0,0,0,.726.726H8.6a6.111,6.111,0,1,0,9.048,0h2.363a.731.731,0,0,0,.726-.726.721.721,0,0,0-.726-.726H15.725c-.186-.084-.371-.152-.557-.219v-.743h5.419a.726.726,0,0,0,0-1.452H15.168V14.61h5.909a.726.726,0,1,0,0-1.452H15.168V12.2h6.516a.726.726,0,1,0,0-1.452H15.168V9.63h7.191a.726.726,0,1,0,0-1.452H15.387a2.484,2.484,0,0,0,.186-.945h7.073A1.639,1.639,0,0,0,24.284,5.6V3.638A1.639,1.639,0,0,0,22.646,2Zm-9.5,24.005a2.583,2.583,0,1,1,2.583-2.583A2.583,2.583,0,0,1,13.142,26.005Z" transform="translate(-2 -2)" fill="#fff"/>
</svg>
