<?xml version="1.0" encoding="utf-8"?>
<!-- Generator: Adobe Illustrator 21.1.0, SVG Export Plug-In . SVG Version: 6.00 Build 0)  -->
<svg version="1.1" id="Layer_1" xmlns="http://www.w3.org/2000/svg" xmlns:xlink="http://www.w3.org/1999/xlink" x="0px" y="0px"
	 viewBox="0 0 34.1 34.1" style="enable-background:new 0 0 34.1 34.1;" xml:space="preserve">
<style type="text/css">
	.st0{fill:#009A93;}
</style>
<path id="Path_231" class="st0" d="M21.6,30.2c-0.2,0.3-0.6,0.5-0.9,0.5l-4.8,0.3c-0.2,0-0.5,0-0.7-0.1c-0.2-0.1-0.5-0.2-0.7-0.3
	c0,0-0.1,0-0.1-0.1c-0.1-0.1-0.2-0.1-0.3-0.2c-0.4-0.4-0.7-0.7-1.1-1.2c-0.6-0.7-1.1-1.5-1.5-2.4c-0.6-1.2-1.1-2.5-1.4-3.8
	c-0.5-1.8-0.8-3.6-0.9-5.5c-0.1-1.5-0.1-3,0-4.5c0.1-1.2,0.3-2.3,0.5-3.5c0.2-0.9,0.5-1.7,0.8-2.6c0.3-0.6,0.6-1.2,0.9-1.8
	c0.2-0.4,0.5-0.7,0.7-1c0.2-0.2,0.3-0.3,0.4-0.4c0.2-0.2,0.4-0.3,0.7-0.4c0.2-0.1,0.5-0.2,0.7-0.2L18.7,3c0.3,0,0.6,0.1,0.9,0.3
	c0.2,0.1,0.3,0.3,0.3,0.5c0,0.2,0.1,0.4,0,0.6l-1.3,5.7c-0.1,0.3-0.2,0.6-0.5,0.8c-0.2,0.2-0.6,0.3-0.9,0.3l-1.8,0.1
	c-0.1,0-0.1,0-0.2,0.1c-0.1,0-0.1,0.1-0.2,0.1c-0.2,0.4-0.4,0.8-0.5,1.2c-0.1,0.6-0.2,1.2-0.3,1.8c-0.1,0.9,0,1.8,0,2.7
	c0,0.9,0.2,1.8,0.3,2.7c0.1,0.6,0.3,1.1,0.5,1.7c0.1,0.3,0.3,0.6,0.5,0.9l0.2,0.3c0,0,0.1,0.1,0.2,0.1c0.1,0,0.1,0,0.2,0l2.1-0.2
	c0.4,0,0.8,0.1,1.1,0.4c0.2,0.1,0.3,0.3,0.4,0.6l0,0l1.8,5.4C21.8,29.5,21.7,29.9,21.6,30.2L21.6,30.2z"/>
</svg>
