<svg xmlns="http://www.w3.org/2000/svg" viewBox="0 0 75.557 65.381"><defs><style>.a{fill:#009a93;}</style></defs><path class="a" d="M143.162,120.687h-6.335v-6.355A2.318,2.318,0,0,0,134.533,112H125.38a2.306,2.306,0,0,0-2.313,2.313v6.335h-6.335a2.318,2.318,0,0,0-2.332,2.293v9.173a2.306,2.306,0,0,0,2.313,2.313h6.355v6.335a2.318,2.318,0,0,0,2.293,2.332h9.153a2.306,2.306,0,0,0,2.313-2.313h0v-6.335h6.335a2.318,2.318,0,0,0,2.332-2.293V123a2.31,2.31,0,0,0-2.332-2.313Zm-.777,10.65h-7.113a1.559,1.559,0,0,0-1.555,1.555v7.093h-7.54v-7.113a1.559,1.559,0,0,0-1.555-1.555h-7.113v-7.54h7.113a1.559,1.559,0,0,0,1.555-1.555v-7.113h7.54v7.113a1.559,1.559,0,0,0,1.555,1.555h7.113Z" transform="translate(-92.168 -90.228)"/><path class="a" d="M64.83,10.116H52.023V4.636A4.519,4.519,0,0,0,47.651-.028H28.3a4.535,4.535,0,0,0-4.761,4.275v5.83H10.727C5.791,10.077,0,12.9,0,20.8V54.619c0,7.909,5.791,10.727,10.727,10.727h54.1c4.936,0,10.727-2.818,10.727-10.727V20.843c0-7.909-5.772-10.727-10.727-10.727ZM26.643,4.636a1.467,1.467,0,0,1,1.671-1.671H47.262c1.671,0,1.671,1.2,1.671,1.671v5.441H26.643Zm45.8,49.983c0,6.879-5.325,7.618-7.618,7.618h-54.1c-2.293,0-7.618-.738-7.618-7.618V20.843c0-6.879,5.325-7.618,7.618-7.618h54.1c2.293,0,7.618.738,7.618,7.618Z" transform="translate(0 0.035)"/></svg>