<svg xmlns="http://www.w3.org/2000/svg" viewBox="0 0 67.635 67.63"><defs><style>.a{fill:#009a93;}</style></defs><path class="a" d="M321.775,40a9.764,9.764,0,0,0-6.737,16.841,1.583,1.583,0,0,0,.159.145,9.761,9.761,0,0,0,13.156,0,1.586,1.586,0,0,0,.159-.145A9.764,9.764,0,0,0,321.775,40ZM317.68,55.613a4.856,4.856,0,0,1,8.19,0,7.124,7.124,0,0,1-8.19,0Zm2.734-6.248v-.674a1.361,1.361,0,1,1,2.721,0v.674a1.361,1.361,0,1,1-2.721,0Zm7.331,4.306a7.443,7.443,0,0,0-2.6-2.153,4,4,0,0,0,.634-2.153v-.674a4,4,0,0,0-8,0v.674a4,4,0,0,0,.634,2.153,7.443,7.443,0,0,0-2.6,2.153,7.043,7.043,0,0,1-1.162-3.9,7.133,7.133,0,1,1,14.266,0A7.042,7.042,0,0,1,327.745,53.671Z" transform="translate(-270.788 -34.716)"/><path class="a" d="M64.988,44.118a2.65,2.65,0,0,0,2.642-2.642V2.642A2.65,2.65,0,0,0,64.988,0h-28a2.65,2.65,0,0,0-2.642,2.642V41.476a2.65,2.65,0,0,0,2.642,2.642H46.35l-8.374,4.834h0l-6.3-6.327a7.885,7.885,0,0,0-5.6-2.325H15.89V37.976a2.65,2.65,0,0,0-2.642-2.642H1.321A1.325,1.325,0,0,0,0,36.655V66.309A1.325,1.325,0,0,0,1.321,67.63H13.249a2.65,2.65,0,0,0,2.642-2.642V62.756l3.949,2.391a17.163,17.163,0,0,0,8.89,2.483H48.279a17.188,17.188,0,0,0,10.8-3.831l6.763-5.469a4.813,4.813,0,0,0,.383-7.146,5.107,5.107,0,0,0-6.512-.594c-.013.013-.026.026-.04.026l-7.41,5.574A1.321,1.321,0,0,0,53.853,58.3l7.384-5.548a2.445,2.445,0,0,1,3.117.3,2.188,2.188,0,0,1,.634,1.651,2.12,2.12,0,0,1-.806,1.572l-6.763,5.469a14.57,14.57,0,0,1-9.141,3.236H28.729a14.548,14.548,0,0,1-7.529-2.1l-5.323-3.223V42.942H26.061A5.289,5.289,0,0,1,29.8,44.488l7.027,7.054a5.234,5.234,0,0,0,3.738,1.545h5.178a1.981,1.981,0,0,1,0,3.963H35.8a4.661,4.661,0,0,1-2.563-.766l-4.24-2.761-.013-.013a1.317,1.317,0,1,0-1.44,2.206l4.253,2.774a7.284,7.284,0,0,0,4,1.189h9.96a4.623,4.623,0,0,0,0-9.246h-5.1l10.977-6.34,13.354.026ZM13.249,64.988H2.642V37.976H13.249v3.646h0V64.988ZM36.985,2.642h28V41.476h-28Z"/><path class="a" d="M132.4,75.938a1.325,1.325,0,1,0,2.3-1.321L123.155,54.632l11.888-6.869a1.325,1.325,0,1,0-1.321-2.3l-11.888,6.869a2.638,2.638,0,0,0-.964,3.606Z" transform="translate(-104.596 -39.31)"/><path class="a" d="M338.643,212H323.321a1.321,1.321,0,0,0,0,2.642h15.322a1.321,1.321,0,0,0,0-2.642Z" transform="translate(-279.467 -183.997)"/><path class="a" d="M439.321,256a1.389,1.389,0,0,0-.938.383,1.307,1.307,0,0,0-.383.938,1.364,1.364,0,0,0,.383.938,1.307,1.307,0,0,0,.938.383,1.364,1.364,0,0,0,.938-.383,1.308,1.308,0,0,0,.383-.938,1.364,1.364,0,0,0-.383-.938A1.307,1.307,0,0,0,439.321,256Z" transform="translate(-380.145 -222.185)"/><path class="a" d="M333.135,256h-9.814a1.321,1.321,0,0,0,0,2.642h9.814a1.321,1.321,0,1,0,0-2.642Z" transform="translate(-279.467 -222.185)"/><path class="a" d="M51.421,368.5a1.325,1.325,0,0,0-1.321,1.321v5.165a1.321,1.321,0,1,0,2.642,0v-5.165A1.325,1.325,0,0,0,51.421,368.5Z" transform="translate(-43.482 -319.825)"/><path class="a" d="M51.421,442.1a1.389,1.389,0,0,0-.938.383,1.307,1.307,0,0,0-.383.938,1.389,1.389,0,0,0,.383.938,1.307,1.307,0,0,0,.938.383,1.389,1.389,0,0,0,.938-.383,1.307,1.307,0,0,0,.383-.938,1.389,1.389,0,0,0-.383-.938A1.364,1.364,0,0,0,51.421,442.1Z" transform="translate(-43.482 -383.703)"/></svg>