<svg xmlns="http://www.w3.org/2000/svg" viewBox="0 0 74.416 74.353"><defs><style>.a{fill:#009a93;}</style></defs><path class="a" d="M68.307,49.039l-5.334,1.773a5.649,5.649,0,0,0-3.517-3.546A6.2,6.2,0,0,0,52.96,42a10.514,10.514,0,0,0-9.708-4.941,4.981,4.981,0,0,0-3.285-3.5A23.932,23.932,0,0,1,46,23.576c.145.174.291.349.451.509A13.384,13.384,0,0,0,55.924,28.1a6.57,6.57,0,0,0,.756-.029,10.865,10.865,0,0,0,8.153-4.258C70.24,16.7,74.207,2.43,74.367,1.835a1.2,1.2,0,0,0-.16-1.017,1.226,1.226,0,0,0-.872-.538c-.727-.1-18.007-2.267-26.64,5.029a10.993,10.993,0,0,0-1.657,1.729,28.169,28.169,0,0,0-10.449-.843,1.272,1.272,0,0,0-.9.552,1.213,1.213,0,0,0-.145,1.046c.087.276,2.049,6.613,4.767,9.8a6.188,6.188,0,0,0,4.752,2.093c.174,0,.363-.015.538-.029a14.716,14.716,0,0,0,.916,1.86A26.362,26.362,0,0,0,37.452,33.43a5.039,5.039,0,0,0-2.95,1.86A8.652,8.652,0,0,0,24.59,37.4a7.053,7.053,0,0,0-2.267-.363A7.428,7.428,0,0,0,15,43.24H12.7a5.565,5.565,0,0,0-4.636-2.485H5.581A5.6,5.6,0,0,0,0,46.35V68.673a5.582,5.582,0,0,0,5.581,5.581H8.066a5.447,5.447,0,0,0,3.459-1.235h32.25a9.819,9.819,0,0,0,5.159-1.453L72.187,57.41a4.644,4.644,0,0,0-3.88-8.371ZM48.294,7.212c4.752-4.011,12.818-4.8,18.443-4.8,2.006,0,3.706.1,4.84.189C70.429,6.4,67.028,16.862,62.871,22.327a8.434,8.434,0,0,1-6.337,3.285,10.8,10.8,0,0,1-8.3-3.241c-.16-.16-.305-.334-.451-.509A43.013,43.013,0,0,1,56.36,15.83a1.238,1.238,0,0,0-1.09-2.224,43.613,43.613,0,0,0-8.909,6.148,11.591,11.591,0,0,1-1.279-5.784A9.255,9.255,0,0,1,48.294,7.212ZM40.2,15.99a27.425,27.425,0,0,1-3.779-7.441,24.311,24.311,0,0,1,7.31.683,12.331,12.331,0,0,0-1.119,4.607,13.736,13.736,0,0,0,.276,3.357A3.688,3.688,0,0,1,40.2,15.99ZM22.323,39.52a4.935,4.935,0,0,1,2.122.494,1.245,1.245,0,0,0,1.541-.392,6.174,6.174,0,0,1,8.342-1.613,1.241,1.241,0,0,0,1.061.131,1.255,1.255,0,0,0,.77-.741,2.436,2.436,0,0,1,2.209-1.584c.029,0,.073.015.1.015s.058-.015.087-.015a2.479,2.479,0,0,1,2.4,2.4c0,.029-.015.145-.015.189a1.207,1.207,0,0,0,.421,1,1.271,1.271,0,0,0,1.061.276,7.635,7.635,0,0,1,1.628-.16,8.044,8.044,0,0,1,7.165,4.389,1.258,1.258,0,0,0,1.366.654,3.745,3.745,0,0,1,4.491,3.59v.116a1.235,1.235,0,0,0,1.061,1.221,3.111,3.111,0,0,1,2.5,2.107l-15.26,5.087a3.567,3.567,0,0,1-1.177.189h-.741a5.664,5.664,0,0,0-.465-4.883l-.116-.189a7.491,7.491,0,0,0-6.38-3.619H30.011a10.118,10.118,0,0,1-6.293-2.209,12.527,12.527,0,0,0-6.22-2.631A4.99,4.99,0,0,1,22.323,39.52ZM5.581,71.769a3.1,3.1,0,0,1-3.1-3.1V46.35a3.1,3.1,0,0,1,3.1-3.1H8.066a3.1,3.1,0,0,1,3.1,3.1V68.673a3.1,3.1,0,0,1-3.1,3.1ZM71.9,53.864a2.177,2.177,0,0,1-1,1.439L47.64,69.458a7.4,7.4,0,0,1-3.866,1.09H13.3a5.779,5.779,0,0,0,.349-1.86V46.35c-.015-.2-.029-.421-.058-.625h2.3a10.118,10.118,0,0,1,6.293,2.209,12.611,12.611,0,0,0,7.848,2.747h6.482a4.97,4.97,0,0,1,4.258,2.413l.116.189a3.2,3.2,0,0,1-.189,3.6H33.151a12.444,12.444,0,0,0-6.874,2.078l-.916.61a1.238,1.238,0,1,0,1.366,2.064l.916-.61a9.9,9.9,0,0,1,5.508-1.671H44.167a6.033,6.033,0,0,0,1.962-.32l15.827-5.276c.015,0,.044.015.058.015a1.118,1.118,0,0,0,.756-.291l6.322-2.107a2.168,2.168,0,0,1,2.413.756A2.244,2.244,0,0,1,71.9,53.864Z" transform="translate(0 0.098)"/><path class="a" d="M189.137,277.527a1.25,1.25,0,0,0,1.468-.974,1.85,1.85,0,0,1,1.817-1.482,1.824,1.824,0,0,1,1.119.378,1.244,1.244,0,0,0,1.729-.247,1.231,1.231,0,0,0-.247-1.729,4.338,4.338,0,0,0-6.86,2.6A1.239,1.239,0,0,0,189.137,277.527Z" transform="translate(-160.797 -232.968)"/><path class="a" d="M283.418,292.286a1.887,1.887,0,0,1,2.34.233,1.848,1.848,0,0,1,.523,1.046,1.235,1.235,0,0,0,1.221,1.061.71.71,0,0,0,.174-.014,1.235,1.235,0,0,0,1.046-1.41,4.34,4.34,0,0,0-6.685-3.008,1.235,1.235,0,0,0,.131,2.136,1.276,1.276,0,0,0,1.25-.044Z" transform="translate(-240.573 -247.392)"/></svg>