<svg xmlns="http://www.w3.org/2000/svg" xmlns:xlink="http://www.w3.org/1999/xlink" width="76.667" height="76.667" viewBox="0 0 76.667 76.667">
  <defs>
    <clipPath id="clip-path">
      <path id="Trazado_3" data-name="Trazado 3" d="M0-37H38.72V2.036H0Z" transform="translate(0 37)" fill="none"/>
    </clipPath>
  </defs>
  <g id="Grupo_372" data-name="Grupo 372" transform="translate(-1832.333 -1055.183)">
    <circle id="Elipse_74" data-name="Elipse 74" cx="38.333" cy="38.333" r="38.333" transform="translate(1832.333 1055.183)" fill="#263238"/>
    <g id="Grupo_360" data-name="Grupo 360" transform="translate(1851.028 1072.758)">
      <g id="Grupo_3" data-name="Grupo 3" transform="translate(0 0)" clip-path="url(#clip-path)">
        <g id="Grupo_2" data-name="Grupo 2" transform="translate(0)">
          <path id="Trazado_2" data-name="Trazado 2" d="M1.5,1.238.342.711S-1.346-.028-2.4-.555c-.106,0-.21-.106-.317-.106a1.525,1.525,0,0,0-.739.211s-.106.106-1.583,1.794a.58.58,0,0,1-.528.317h-.106a.8.8,0,0,1-.422-.211l-.528-.211a10.256,10.256,0,0,1-3.06-2c-.211-.211-.528-.422-.739-.633a11.784,11.784,0,0,1-2-2.532l-.106-.211c-.106-.106-.106-.211-.211-.422a.791.791,0,0,1,.106-.528s.422-.528.739-.844c.211-.211.317-.528.528-.739a1.3,1.3,0,0,0,.211-1.055,41.073,41.073,0,0,0-1.688-4.009,1.221,1.221,0,0,0-.739-.528h-1.161c-.211,0-.422.106-.633.106l-.106.106c-.211.106-.422.317-.633.422-.211.211-.317.422-.528.633A5.38,5.38,0,0,0-17.8-7.73,6.258,6.258,0,0,0-17.277-5.3l.106.317a17.576,17.576,0,0,0,3.9,5.381l.422.422A6.366,6.366,0,0,1-12,1.66a18.852,18.852,0,0,0,7.6,4.009c.317.106.74.106,1.055.211H-2.3A3.911,3.911,0,0,0-.713,5.458c.317-.211.528-.211.74-.422l.21-.211c.211-.211.422-.317.633-.528A2.77,2.77,0,0,0,1.4,3.665a6,6,0,0,0,.422-1.477V1.449A1.306,1.306,0,0,0,1.5,1.238M-7.782,12.949a15.675,15.675,0,0,1-8.124-2.216l-.633-.317L-22.658,12l1.583-6.014-.422-.633a15.963,15.963,0,0,1,5.17-22.05,15.941,15.941,0,0,1,22.05,5.17A15.942,15.942,0,0,1,.554,10.522a15.387,15.387,0,0,1-8.336,2.427M5.829-16.8A19,19,0,0,0-7.782-22.5,19.272,19.272,0,0,0-27.089-3.087a20.371,20.371,0,0,0,2.532,9.6L-27.3,16.536-17.066,13.9A18.839,18.839,0,0,0-7.887,16.22,19.407,19.407,0,0,0,11.42-3.193,19.15,19.15,0,0,0,5.829-16.8" transform="translate(27.3 22.5)" fill="#fff"/>
        </g>
      </g>
    </g>
  </g>
</svg>
