<?xml version="1.0" encoding="utf-8"?>
<!-- Generator: Adobe Illustrator 16.0.0, SVG Export Plug-In . SVG Version: 6.00 Build 0)  -->
<!DOCTYPE svg PUBLIC "-//W3C//DTD SVG 1.1//EN" "http://www.w3.org/Graphics/SVG/1.1/DTD/svg11.dtd">
<svg version="1.1" id="Capa_1" xmlns="http://www.w3.org/2000/svg" xmlns:xlink="http://www.w3.org/1999/xlink" x="0px" y="0px"
	 width="34.064px" height="34.061px" viewBox="0 0 34.064 34.061" enable-background="new 0 0 34.064 34.061" xml:space="preserve">
<g>
	<path fill="#FFFFFF" d="M29.656,8.486L25.471,4.3l-7.794,7.858l4.186,4.187L29.656,8.486z"/>
	<path fill="#FFFFFF" d="M13.928,18.802c-0.339,0.813,0.478,1.631,1.292,1.29l5.01-2.591l-3.712-3.713L13.928,18.802z"/>
	<path fill="#FFFFFF" d="M33.435,4.708c0.385-0.385,0.385-1.01,0-1.396l-2.792-2.79c-0.385-0.385-1.009-0.385-1.394,0l-2.383,2.381
		l4.185,4.186L33.435,4.708z"/>
	<path fill="#FFFFFF" d="M3.008,27.925h0.987v4.997c0,0.398,0.239,0.759,0.608,0.911c0.364,0.152,0.791,0.072,1.075-0.213
		l5.697-5.695h11.496c1.631,0,2.96-1.329,2.96-2.96v-9.796l-3.112,3.113c-0.271,0.271-0.588,0.485-0.944,0.633l-5.648,2.931
		c-0.514,0.221-0.899,0.3-1.292,0.3c-0.294,0-0.577-0.056-0.851-0.139H6.954c-0.545,0-0.987-0.444-0.987-0.987
		c0-0.547,0.442-0.987,0.987-0.987h4.996c-0.195-0.647-0.112-1.346,0.157-1.987l3.044-5.914c0.087-0.218,0.301-0.536,0.571-0.807
		l3.133-3.131H3.008c-1.632,0-2.959,1.327-2.959,2.959v13.813C0.048,26.596,1.376,27.925,3.008,27.925z"/>
</g>
</svg>
