<?xml version="1.0" encoding="utf-8"?>
<!-- Generator: Adobe Illustrator 16.0.0, SVG Export Plug-In . SVG Version: 6.00 Build 0)  -->
<!DOCTYPE svg PUBLIC "-//W3C//DTD SVG 1.1//EN" "http://www.w3.org/Graphics/SVG/1.1/DTD/svg11.dtd">
<svg version="1.1" id="Layer_1" xmlns="http://www.w3.org/2000/svg" xmlns:xlink="http://www.w3.org/1999/xlink" x="0px" y="0px"
	 width="29.975px" height="29.38px" viewBox="393.893 250.62 29.975 29.38" enable-background="new 393.893 250.62 29.975 29.38"
	 xml:space="preserve">
<g>
	<path fill="#9E9E9E" d="M422.827,276.465l-9.747-9.783c1.015-1.558,1.594-3.442,1.594-5.434c0-5.616-4.529-10.145-10.145-10.145
		s-10.145,4.529-10.145,10.145c0,5.616,4.529,10.145,10.145,10.145c2.283,0,4.384-0.761,6.087-2.029l9.673,9.638
		c0.689,0.688,1.848,0.688,2.573,0l0,0C423.551,278.313,423.551,277.153,422.827,276.465z M397.646,261.248
		c0-3.804,3.08-6.884,6.884-6.884s6.884,3.08,6.884,6.884c0,3.804-3.08,6.884-6.884,6.884S397.646,265.051,397.646,261.248z"/>
</g>
</svg>
